<svg width="467" height="131" viewBox="0 0 467 131" fill="none" xmlns="http://www.w3.org/2000/svg">
<path d="M88.5831 88.5C88.5831 104.859 68.8464 116 44.5 116C20.1535 116 0.416855 104 0.416855 88.5C0.416855 85.8978 -0.521069 43.6085 0.416855 41.2039C5.37521 28.4921 24.0263 29.6569 44.5 29.6569C64.9736 29.6569 83.6248 25.4799 88.5831 38.1917C89.5211 40.5962 88.5831 85.8978 88.5831 88.5Z" fill="#418421"/>
<path d="M121.827 105H138.433V82.679L146.602 72.7074L168.118 105H187.984L158.491 61.6236L187.639 26.4545H167.734L139.469 61.0866H138.433V26.4545H121.827V105ZM194.272 105H210.61V46.0909H194.272V105ZM202.48 38.4972C207.35 38.4972 211.339 34.777 211.339 30.2131C211.339 25.6875 207.35 21.9673 202.48 21.9673C197.647 21.9673 193.659 25.6875 193.659 30.2131C193.659 34.777 197.647 38.4972 202.48 38.4972ZM229.919 105H247.177L257.302 67.9517H258.031L268.156 105H285.453L301.446 46.0909H284.954L275.98 85.4403H275.481L265.816 46.0909H249.593L240.082 85.6705H239.545L230.417 46.0909H213.887L229.919 105ZM304.761 105H321.099V46.0909H304.761V105ZM312.969 38.4972C317.839 38.4972 321.828 34.777 321.828 30.2131C321.828 25.6875 317.839 21.9673 312.969 21.9673C308.136 21.9673 304.148 25.6875 304.148 30.2131C304.148 34.777 308.136 38.4972 312.969 38.4972ZM356.938 105C380.869 105 395.367 90.196 395.367 65.6506C395.367 41.1818 380.869 26.4545 357.168 26.4545H329.094V105H356.938ZM345.7 90.7713V40.6832H356.286C371.013 40.6832 378.798 48.2003 378.798 65.6506C378.798 83.1776 371.013 90.7713 356.247 90.7713H345.7ZM402.268 105H435.826C453.468 105 462.865 95.7955 462.865 83.2926C462.865 71.6719 454.542 64.6534 445.606 64.2315V63.4645C453.775 61.6236 459.797 55.8324 459.797 46.5895C459.797 34.8153 451.052 26.4545 433.717 26.4545H402.268V105ZM418.875 91.4233V70.5597H432.797C440.774 70.5597 445.721 75.1619 445.721 81.6435C445.721 87.5497 441.694 91.4233 432.413 91.4233H418.875ZM418.875 59.3224V39.8778H431.493C438.856 39.8778 443.037 43.6747 443.037 49.3509C443.037 55.5639 437.974 59.3224 431.186 59.3224H418.875Z" fill="#22F250"/>
<ellipse cx="44.5" cy="67.5" rx="44.5" ry="29.5" fill="#28DA4F"/>
<path d="M89 67.5C89 83.7924 69.0767 97 44.5 97C19.9233 97 0 83.7924 0 67.5C0 56.9641 0 43.3207 0 43.3207C0 43.3207 37.8164 43.3207 46.5 43.3207C55.9859 43.3207 89 43.3207 89 43.3207V67.5Z" fill="#28DA4F"/>
<ellipse cx="44.5" cy="41.5" rx="44.5" ry="29.5" fill="#22F250"/>
<ellipse cx="43.8826" cy="42.3701" rx="16.3701" ry="23.8826" transform="rotate(90 43.8826 42.3701)" fill="#E2FCA7"/>
</svg>
